<svg width="15" height="16" viewBox="0 0 15 16" fill="none" xmlns="http://www.w3.org/2000/svg">
<path d="M9.76649 10.2352C9.36333 8.77827 9.36333 8.22114 9.76649 6.76483C11.1417 6.24531 13.7822 5.19746 14.3834 4.59507C15.2056 3.77289 15.2056 2.43882 14.3828 1.61664C13.5612 0.794454 12.2272 0.794454 11.405 1.61664C10.8026 2.21844 9.75473 4.85836 9.23521 6.23356C7.7789 6.63672 7.22176 6.63672 5.76428 6.23356C5.24416 4.85777 4.19689 2.21902 3.59567 1.61723C2.7729 0.795042 1.43942 0.795042 0.616641 1.61723C-0.205547 2.43941 -0.205547 3.77347 0.616641 4.59566C1.21844 5.19804 3.85838 6.2459 5.23417 6.76542C5.63674 8.22173 5.63674 8.77945 5.23358 10.2352C3.85779 10.7559 1.21844 11.8031 0.617228 12.4043C-0.204959 13.2271 -0.204959 14.56 0.617228 15.3834C1.43942 16.2055 2.77349 16.2055 3.59626 15.3834C4.19748 14.7816 5.24593 12.1411 5.76486 10.7659C7.22176 10.3633 7.7789 10.3639 9.2358 10.7664C9.75532 12.1428 10.8032 14.7816 11.4044 15.3834C12.2266 16.2055 13.5607 16.2055 14.3828 15.3834C15.2056 14.5606 15.2056 13.2277 14.3828 12.4049C13.7816 11.802 11.1423 10.7547 9.76649 10.2352Z" fill="url(#paint0_linear)"/>
<path d="M7.5 4C8.32843 4 9 3.10457 9 2C9 0.89543 8.32843 0 7.5 0C6.67157 0 6 0.89543 6 2C6 3.10457 6.67157 4 7.5 4Z" fill="url(#paint1_linear)"/>
<defs>
<linearGradient id="paint0_linear" x1="0" y1="1" x2="0" y2="16" gradientUnits="userSpaceOnUse">
<stop stop-color="#FF60F7"/>
<stop offset="1" stop-color="#C700FF"/>
</linearGradient>
<linearGradient id="paint1_linear" x1="6" y1="0" x2="6" y2="4" gradientUnits="userSpaceOnUse">
<stop stop-color="#FF60F7"/>
<stop offset="1" stop-color="#C700FF"/>
</linearGradient>
</defs>
</svg>
